<?xml version="1.0" standalone="no"?>
<!DOCTYPE svg PUBLIC "-//W3C//DTD SVG 20010904//EN"
 "http://www.w3.org/TR/2001/REC-SVG-20010904/DTD/svg10.dtd">
<svg version="1.0" xmlns="http://www.w3.org/2000/svg"
 width="1280.000000pt" height="1280.000000pt" viewBox="0 0 1280.000000 1280.000000"
 preserveAspectRatio="xMidYMid meet">
<metadata>
Created by potrace 1.14, written by Peter Selinger 2001-2017
</metadata>
<g transform="translate(0.000000,1280.000000) scale(0.100000,-0.100000)"
fill="#000000" stroke="none">
<path d="M6418 10375 c-2 -2 -61 -5 -133 -9 -71 -3 -141 -8 -155 -10 -14 -2
-54 -7 -90 -11 -36 -4 -74 -9 -85 -11 -11 -2 -40 -6 -65 -10 -164 -21 -437
-90 -653 -164 -362 -123 -685 -289 -1027 -527 -55 -39 -258 -200 -305 -242
-65 -59 -330 -324 -375 -376 -214 -244 -408 -534 -558 -835 -90 -181 -93 -188
-150 -330 -111 -279 -207 -647 -237 -909 -4 -30 -8 -62 -10 -72 -4 -21 -15
-146 -21 -234 -9 -149 -3 -482 11 -610 14 -129 17 -152 20 -175 2 -14 6 -43
10 -65 3 -23 7 -52 10 -65 2 -14 10 -54 16 -90 18 -101 84 -354 122 -470 164
-500 446 -997 787 -1385 82 -94 343 -348 435 -424 135 -112 126 -105 246 -191
538 -388 1196 -643 1844 -716 28 -3 64 -7 80 -9 190 -22 666 -22 783 0 9 1 48
6 85 10 37 3 76 8 85 9 9 2 38 6 63 10 239 35 608 136 855 234 164 66 450 208
574 287 169 107 376 249 400 275 3 3 43 37 90 75 137 111 320 288 435 420 106
122 121 139 151 180 16 22 37 49 47 60 31 34 211 306 269 405 121 208 216 414
319 695 23 64 98 321 105 360 2 17 7 38 10 47 6 20 11 43 29 133 18 91 25 142
40 260 3 28 8 59 10 71 24 115 24 738 0 862 -1 10 -6 45 -10 77 -4 33 -9 69
-11 80 -2 10 -6 37 -9 60 -54 386 -252 952 -454 1293 -17 29 -31 55 -31 57 0
5 -117 191 -149 236 -14 20 -33 47 -41 59 -8 13 -46 64 -84 114 -484 636
-1155 1117 -1916 1369 -154 51 -397 115 -500 132 -19 3 -57 10 -85 15 -27 5
-70 12 -95 14 -25 3 -76 10 -115 15 -113 16 -555 36 -567 26z"/>
</g>
</svg>
